HIERARCHY
ROOT Hips
{
     OFFSET 14.39700 99.23700 -81.53610
     CHANNELS 6 Xposition Yposition Zposition Zrotation Xrotation Yrotation
     JOINT Spine
     {
          OFFSET -0.00000 11.89050 -0.00000
          CHANNELS 3 Zrotation Xrotation Yrotation
          JOINT Spine1
          {
               OFFSET -0.00000 25.65740 0.12766
               CHANNELS 3 Zrotation Xrotation Yrotation
               JOINT HEad
               {
                    OFFSET 0.00000 8.73416 0.01134
                    CHANNELS 3 Zrotation Xrotation Yrotation
                    End Site
                    {
                         OFFSET -0.29000 12.77420 2.51395
                    }
               }
               JOINT LeftShoulder1
               {
                    OFFSET 8.99000 -0.36225 -0.22000
                    CHANNELS 3 Zrotation Xrotation Yrotation
                    JOINT LeftArm
                    {
                         OFFSET 10.28270 -0.00338 0.32212
                         CHANNELS 3 Zrotation Xrotation Yrotation
                         JOINT LeftForeArm
                         {
                              OFFSET 32.76690 0.09914 -1.42434
                              CHANNELS 3 Zrotation Xrotation Yrotation
                              JOINT LeftHand
                              {
                                   OFFSET 27.56430 0.08536 1.02216
                                   CHANNELS 3 Zrotation Xrotation Yrotation
                                   End Site
                                   {
                                        OFFSET 16.74430 -0.60000 1.50291
                                   }
                              }
                         }
                    }
               }
               JOINT RightShoulder
               {
                    OFFSET -8.99000 -0.36225 -0.22000
                    CHANNELS 3 Zrotation Xrotation Yrotation
                    JOINT RightArm
                    {
                         OFFSET -10.28270 -0.00338 0.32212
                         CHANNELS 3 Zrotation Xrotation Yrotation
                         JOINT RightForeArm
                         {
                              OFFSET -32.89710 0.09914 -1.42434
                              CHANNELS 3 Zrotation Xrotation Yrotation
                              JOINT RightHand
                              {
                                   OFFSET -27.49210 0.08536 1.02216
                                   CHANNELS 3 Zrotation Xrotation Yrotation
                                   End Site
                                   {
                                        OFFSET -16.63120 -0.60000 1.50291
                                   }
                              }
                         }
                    }
               }
          }
     }
     JOINT LeftUpLeg
     {
          OFFSET 8.94580 -8.66707 0.10165
          CHANNELS 3 Zrotation Xrotation Yrotation
          JOINT LeftLeg
          {
               OFFSET 0.00000 -44.42270 1.37270
               CHANNELS 3 Zrotation Xrotation Yrotation
               JOINT LeftFoot
               {
                    OFFSET -0.25355 -42.09240 -1.46059
                    CHANNELS 3 Zrotation Xrotation Yrotation
                    JOINT LeftToes
                    {
                         OFFSET -0.04000 -4.41509 8.49910
                         CHANNELS 3 Zrotation Xrotation Yrotation
                         End Site
                         {
                              OFFSET 0.08000 -0.04745 9.77979
                         }
                    }
               }
          }
     }
     JOINT RightUpLeg
     {
          OFFSET -8.94580 -8.66707 0.10165
          CHANNELS 3 Zrotation Xrotation Yrotation
          JOINT RightLeg
          {
               OFFSET 0.00000 -44.42270 1.37270
               CHANNELS 3 Zrotation Xrotation Yrotation
               JOINT RightFoot
               {
                    OFFSET 0.25355 -42.09240 -1.46059
                    CHANNELS 3 Zrotation Xrotation Yrotation
                    JOINT RightToes
                    {
                         OFFSET 0.04000 -4.41509 8.49910
                         CHANNELS 3 Zrotation Xrotation Yrotation
                         End Site
                         {
                              OFFSET -0.08000 -0.13745 9.77979
                         }
                    }
               }
          }
     }
}
MOTION
Frames: 21
Frame Time: 0.01667
14.39700 99.23700 -81.53610 2.84971 -1.58496 -36.28930 -0.01043 4.23075 3.11082 -1.65165 8.50291 6.44864 -7.16686 3.92913 29.48020 -0.00000 -0.00000 0.00000 -94.08290 -36.13430 -83.20680 -19.44270 32.75540 -86.70180 5.55594 9.67997 -0.87718 17.94620 1.37667 4.30227 64.03490 -19.88040 70.78500 20.52190 39.72000 92.86050 -5.55712 9.68432 0.87760 6.10273 -14.62730 4.66210 3.28240 17.20800 -11.05130 -5.36351 -3.89112 0.18507 0.47715 -10.54310 -1.37795 -10.23980 -0.94768 -7.05398 -0.96334 25.05830 6.81152 5.04084 -27.80520 0.61633 7.60994 8.03043 -2.83930 
14.34260 99.17460 -81.78260 2.73468 -1.40266 -37.01770 0.26501 4.25572 3.08214 -1.45208 8.58007 6.40052 -7.91460 3.62208 30.09340 -0.00000 -0.00000 0.00000 -93.54950 -37.46020 -81.83640 -19.42440 32.84650 -87.31340 5.55594 9.67997 -0.87718 17.95710 1.37691 4.30048 63.15080 -19.57610 70.47950 20.41590 39.50270 93.00710 -5.55712 9.68432 0.87760 6.55433 -14.91510 4.81147 3.33542 17.67920 -10.43660 -5.76423 -3.69797 0.20688 0.56208 -11.69860 -1.90234 -9.68697 -1.27544 -7.22945 -1.62811 24.87320 7.54588 3.76144 -27.33680 0.36774 7.01756 7.44204 -2.53451 
14.28060 99.13090 -82.00880 2.60037 -1.23090 -37.60550 0.50959 4.30145 2.99732 -1.24467 8.69506 6.23525 -8.56976 3.32306 30.72100 -0.00000 -0.00000 0.00000 -92.53130 -38.77400 -79.89220 -19.30060 32.82370 -87.92670 5.55594 9.67997 -0.87718 18.09960 1.38828 4.31745 61.88780 -19.38340 69.76490 20.26200 39.18620 93.21180 -5.55712 9.68432 0.87760 6.94379 -15.13120 4.88360 3.45583 18.04720 -9.99812 -6.14715 -3.63742 0.22309 0.60793 -12.53040 -2.20607 -9.18708 -1.58705 -7.28098 -2.10898 24.79100 7.95752 2.62489 -26.52070 0.14951 5.96462 6.35582 -2.03678 
14.20440 99.10570 -82.20480 2.47607 -1.07446 -38.05060 0.70412 4.35310 2.86719 -1.06001 8.81709 5.97495 -9.06356 3.05540 31.34090 -0.00000 -0.00000 0.00000 -91.05310 -39.96390 -77.42810 -19.08100 32.68280 -88.48780 5.55594 9.67997 -0.87718 18.39850 1.41334 4.35808 60.25170 -19.31070 68.58730 20.06830 38.78020 93.50750 -5.55712 9.68432 0.87760 7.24592 -15.27770 4.88930 3.63029 18.29330 -9.72824 -6.46350 -3.69165 0.23153 0.62280 -13.06610 -2.29373 -8.75945 -1.82870 -7.23385 -2.41615 24.71260 8.09924 1.71534 -25.59090 -0.01490 4.74209 5.05302 -1.50123 
14.11070 99.09650 -82.36260 2.38442 -0.93338 -38.36540 0.84288 4.39753 2.70740 -0.92208 8.92036 5.65226 -9.35516 2.83377 31.93240 -0.00000 -0.00000 0.00000 -89.17910 -40.92830 -74.54630 -18.78610 32.43190 -88.93950 5.55594 9.67997 -0.87718 18.85500 1.45288 4.42396 58.27110 -19.33560 66.91030 19.82640 38.29130 93.93340 -5.55712 9.68432 0.87760 7.45750 -15.36560 4.84900 3.83132 18.41910 -9.59775 -6.68446 -3.83324 0.23181 0.61495 -13.35900 -2.20151 -8.40143 -1.97566 -7.11676 -2.59984 24.57860 8.06696 1.07285 -24.79360 -0.12181 3.66070 3.85928 -1.07558 
13.99990 99.09830 -82.47690 2.33905 -0.80400 -38.57240 0.93116 4.42588 2.53469 -0.84427 8.98845 5.30220 -9.44079 2.66087 32.48150 -0.00000 -0.00000 0.00000 -87.01770 -41.59810 -71.39210 -18.44440 32.09280 -89.23870 5.55594 9.67997 -0.87718 19.44080 1.50540 4.51265 56.00570 -19.40270 64.72940 19.50970 37.72230 94.52720 -5.55712 9.68432 0.87760 7.59384 -15.41560 4.78600 4.02332 18.45080 -9.56526 -6.80481 -4.03707 0.22496 0.59181 -13.46790 -1.98335 -8.09594 -2.03025 -6.95132 -2.72888 24.37070 7.96044 0.69715 -24.31540 -0.17986 2.94493 3.02915 -0.85037 
13.87540 99.10420 -82.54480 2.34434 -0.68097 -38.69980 0.97985 4.43492 2.36334 -0.82813 9.01648 4.95438 -9.35238 2.52566 32.98630 -0.00000 -0.00000 0.00000 -84.70910 -41.95100 -68.13200 -18.08600 31.69830 -89.37120 5.55594 9.67997 -0.87718 20.10280 1.56711 4.61793 53.55010 -19.43130 62.08580 19.07890 37.07310 95.31110 -5.55712 9.68432 0.87760 7.68113 -15.45600 4.72042 4.17077 18.43930 -9.58638 -6.83640 -4.28727 0.21252 0.55983 -13.44890 -1.69653 -7.82163 -2.01519 -6.75080 -2.86911 24.10490 7.85594 0.55838 -24.23960 -0.20063 2.68052 2.66729 -0.85403 
13.74320 99.10530 -82.56630 2.39685 -0.55958 -38.77750 1.00036 4.42733 2.20292 -0.86508 9.01084 4.62842 -9.14584 2.40315 33.45790 -0.00000 -0.00000 0.00000 -82.40050 -42.01290 -64.92330 -17.73720 31.28610 -89.35760 5.55594 9.67997 -0.87718 20.77560 1.63263 4.73098 51.02710 -19.33450 59.07230 18.49680 36.34470 96.27860 -5.55712 9.68432 0.87760 7.74775 -15.52020 4.66495 4.24623 18.45380 -9.61918 -6.79605 -4.57630 0.19588 0.52486 -13.35930 -1.39401 -7.56196 -1.96572 -6.52550 -3.06792 23.82170 7.79651 0.60591 -24.54280 -0.19391 2.81599 2.71674 -1.06650 
13.61050 99.09180 -82.54420 2.48739 -0.43720 -38.83470 1.00164 4.41070 2.05824 -0.94033 8.98701 4.33388 -8.88441 2.25824 33.91690 -0.00000 -0.00000 0.00000 -80.22070 -41.84650 -61.88790 -17.41660 30.89210 -89.24880 5.55594 9.67997 -0.87718 21.39930 1.69639 4.84294 48.56830 -19.04660 55.82430 17.74810 35.54470 97.38660 -5.55712 9.68432 0.87760 7.81731 -15.64160 4.62417 4.23623 18.57120 -9.62651 -6.69470 -4.90070 0.17608 0.49254 -13.26350 -1.12049 -7.31006 -1.92363 -6.28907 -3.34817 23.57830 7.79789 0.77299 -25.11970 -0.16827 3.19668 3.00114 -1.42912 
13.48460 99.05310 -82.48350 2.60386 -0.31396 -38.89970 0.98936 4.39581 1.93086 -1.03795 8.96610 4.07400 -8.62109 2.05071 34.38710 -0.00000 -0.00000 0.00000 -78.26520 -41.53270 -59.10320 -17.13490 30.54520 -89.11120 5.55594 9.67997 -0.87718 21.93340 1.75424 4.94769 46.28650 -18.54300 52.49690 16.85260 34.69210 98.56150 -5.55712 9.68432 0.87760 7.90416 -15.84900 4.59644 4.14380 18.86450 -9.57645 -6.53243 -5.25788 0.15386 0.46828 -13.23260 -0.91038 -7.06924 -1.93405 -6.06297 -3.71198 23.44270 7.86519 0.98302 -25.82700 -0.13349 3.61861 3.29648 -1.85522 
13.37270 98.97890 -82.39060 2.73420 -0.19229 -38.99950 0.96633 4.39461 1.82156 -1.14551 8.97118 3.85089 -8.38702 1.74071 34.88660 -0.00000 -0.00000 0.00000 -76.59570 -41.15180 -56.60800 -16.89560 30.26500 -89.00940 5.55594 9.67997 -0.87718 22.36470 1.80458 5.04384 44.25100 -17.84600 49.23480 15.86560 33.81790 99.71570 -5.55712 9.68432 0.87760 8.01229 -16.16340 4.57701 3.98722 19.39340 -9.44224 -6.30290 -5.64760 0.12984 0.45642 -13.33330 -0.78575 -6.85057 -2.04363 -5.87500 -4.14939 23.49010 8.00635 1.16219 -26.52970 -0.10122 3.88711 3.40545 -2.24497 
13.28080 98.85810 -82.27230 2.86921 -0.07619 -39.16030 0.93309 4.41804 1.73209 -1.25710 9.02332 3.66915 -8.18828 1.29449 35.42320 -0.00000 -0.00000 0.00000 -75.24550 -40.77200 -54.41730 -16.69840 30.06150 -88.99060 5.55594 9.67997 -0.87718 22.70470 1.84864 5.13501 42.47720 -17.01420 46.14800 14.86180 32.96150 100.77100 -5.55712 9.68432 0.87760 8.13645 -16.59710 4.56032 3.79545 20.19940 -9.20249 -6.00425 -6.07634 0.10457 0.45897 -13.61110 -0.75399 -6.66892 -2.29840 -5.75404 -4.64987 23.79750 8.24200 1.25640 -27.14170 -0.08213 3.87567 3.21607 -2.51626 
13.21330 98.67930 -82.13430 3.00443 0.02995 -39.40510 0.88821 4.47444 1.66558 -1.37388 9.13841 3.53629 -8.01140 0.68911 35.99280 -0.00000 -0.00000 0.00000 -74.22690 -40.44440 -52.53470 -16.54060 29.93680 -89.07670 5.55594 9.67997 -0.87718 22.98010 1.88955 5.22791 40.93600 -16.12060 43.30290 13.91270 32.16180 101.67600 -5.55712 9.68432 0.87760 8.26542 -17.15520 4.54089 3.60099 21.30680 -8.84235 -5.65084 -6.56270 0.07847 0.47462 -14.07310 -0.80594 -6.53816 -2.73962 -5.72205 -5.21261 24.43500 8.60466 1.24442 -27.64520 -0.08189 3.55829 2.72511 -2.62722 
13.17240 98.43070 -81.98070 3.14029 0.12265 -39.75110 0.82828 4.56843 1.62509 -1.50196 9.32511 3.45956 -7.83377 -0.08414 36.58340 -0.00000 -0.00000 0.00000 -73.53550 -40.20320 -50.95880 -16.41950 29.88640 -89.26480 5.55594 9.67997 -0.87718 23.22150 1.93084 5.32932 39.57440 -15.23210 40.72760 13.06960 31.44880 102.40500 -5.55712 9.68432 0.87760 8.38648 -17.83960 4.51302 3.43220 22.72780 -8.35613 -5.28111 -7.13879 0.05167 0.49881 -14.67900 -0.91683 -6.46561 -3.39741 -5.78601 -5.85365 25.45430 9.13369 1.14076 -28.09020 -0.09911 3.01540 2.03350 -2.58846 
13.15740 98.10100 -81.81300 3.28054 0.20020 -40.20490 0.74804 4.70090 1.61133 -1.64824 9.58453 3.44097 -7.63439 -1.01902 37.18030 -0.00000 -0.00000 0.00000 -73.15380 -40.06830 -49.68280 -16.33390 29.90200 -89.53440 5.55594 9.67997 -0.87718 23.45120 1.97491 5.44285 38.33830 -14.39430 38.42430 12.35790 30.83840 102.96000 -5.55712 9.68432 0.87760 8.48920 -18.65250 4.47062 3.30784 24.46830 -7.75137 -4.95599 -7.84411 0.02371 0.52522 -15.34450 -1.05114 -6.44777 -4.28298 -5.93072 -6.60545 26.87560 9.86141 0.98443 -28.56830 -0.12718 2.39619 1.30565 -2.44826 
13.16540 97.68150 -81.62940 3.42882 0.26327 -40.75830 0.64121 4.86979 1.62046 -1.81492 9.91176 3.47272 -7.40143 -2.09670 37.77060 -0.00000 -0.00000 0.00000 -73.05490 -40.04680 -48.69090 -16.28390 29.97370 -89.85810 5.55594 9.67997 -0.87718 23.67560 2.02171 5.56649 37.18890 -13.62540 36.38110 11.78100 30.33230 103.35100 -5.55712 9.68432 0.87760 8.56748 -19.59900 4.40877 3.23659 26.53340 -7.05467 -4.74710 -8.71142 -0.00697 0.54786 -15.95980 -1.17072 -6.46837 -5.38167 -6.11483 -7.50706 28.67690 10.79690 0.82099 -29.17250 -0.15798 1.86099 0.70977 -2.27162 
13.19140 97.16810 -81.42520 3.58461 0.31499 -41.38540 0.50221 5.07183 1.64303 -1.99474 10.29930 3.53508 -7.13483 -3.29133 38.34550 -0.00000 -0.00000 0.00000 -73.20700 -40.13180 -47.95490 -16.27110 30.09170 -90.20910 5.55594 9.67997 -0.87718 23.88340 2.06837 5.69198 36.10680 -12.91730 34.57950 11.32630 29.91960 103.58900 -5.55712 9.68432 0.87760 8.61867 -20.68820 4.32629 3.22290 28.92940 -6.31634 -4.71494 -9.74531 -0.04344 0.56269 -16.42350 -1.24433 -6.50160 -6.64938 -6.27208 -8.58303 30.79310 11.90730 0.68693 -29.95660 -0.18483 1.52016 0.35325 -2.11894 
13.23060 96.56410 -81.19180 3.74001 0.36046 -42.04210 0.32838 5.30443 1.66470 -2.16820 10.74090 3.59780 -6.84415 -4.57607 38.89880 -0.00000 -0.00000 0.00000 -73.57910 -40.29980 -47.43250 -16.29700 30.24790 -90.56640 5.55594 9.67997 -0.87718 24.05180 2.10987 5.80642 35.08500 -12.24240 32.99560 10.96980 29.57840 103.68600 -5.55712 9.68432 0.87760 8.64038 -21.93240 4.22842 3.27816 31.66350 -5.61222 -4.88533 -10.90440 -0.08969 0.56805 -16.67500 -1.25454 -6.52016 -8.01479 -6.32231 -9.81931 33.12580 13.10640 0.60355 -30.90780 -0.20322 1.39068 0.23618 -2.02881 
13.27930 95.88060 -80.91800 3.87888 0.40524 -42.67010 0.12151 5.56713 1.66853 -2.30463 11.23500 3.62475 -6.54556 -5.92849 39.42480 -0.00000 -0.00000 0.00000 -74.14170 -40.50700 -47.06660 -16.36250 30.43550 -90.91340 5.55594 9.67997 -0.87718 24.15750 2.14074 5.89602 34.11600 -11.56380 31.60010 10.68020 29.27670 103.65000 -5.55712 9.68432 0.87760 8.62596 -23.34600 4.12755 3.43364 34.74260 -5.04090 -5.23400 -12.09740 -0.14793 0.56420 -16.70970 -1.19978 -6.50686 -9.38831 -6.19240 -11.14690 35.56530 14.26010 0.58154 -31.94740 -0.20963 1.38729 0.24569 -2.00478 
13.33720 95.13510 -80.58940 3.97889 0.45293 -43.20520 -0.11201 5.86214 1.63840 -2.36720 11.78530 3.58071 -6.25760 -7.33182 39.91720 -0.00000 -0.00000 0.00000 -74.86290 -40.68860 -46.78300 -16.46540 30.64780 -91.23500 5.55594 9.67997 -0.87718 24.18940 2.15731 5.95066 33.18010 -10.84710 30.36210 10.42430 28.97590 103.47900 -5.55712 9.68432 0.87760 8.56193 -24.94240 4.04075 3.74943 38.17180 -4.71610 -5.69086 -13.20130 -0.21521 0.55252 -16.56420 -1.09113 -6.46519 -10.67590 -5.84361 -12.44810 38.01410 15.21840 0.63478 -32.96300 -0.19888 1.35672 0.20221 -2.01075 
13.40670 94.34680 -80.18950 4.01556 0.50238 -43.59060 -0.36020 6.19301 1.56278 -2.32070 12.39910 3.43864 -5.99778 -8.77294 40.37010 -0.00000 -0.00000 0.00000 -75.69980 -40.76230 -46.48970 -16.59870 30.87460 -91.51560 5.55594 9.67997 -0.87718 24.15680 2.15937 5.96758 32.24430 -10.07300 29.26240 10.17750 28.63850 103.15500 -5.55712 9.68432 0.87760 8.43031 -26.73090 3.98510 4.31520 41.95080 -4.75621 -6.16422 -14.09690 -0.28245 0.53463 -16.28010 -0.94620 -6.42547 -11.79470 -5.29174 -13.58220 40.40400 15.85980 0.78974 -33.85080 -0.16235 1.13188 -0.07416 -1.98003 
